<?xml version="1.0" encoding="utf-8"?>
<!-- Svg Vector Icons : http://www.onlinewebfonts.com/icon -->
<!DOCTYPE svg PUBLIC "-//W3C//DTD SVG 1.1//EN" "http://www.w3.org/Graphics/SVG/1.1/DTD/svg11.dtd">
<svg version="1.1" xmlns="http://www.w3.org/2000/svg" xmlns:xlink="http://www.w3.org/1999/xlink" x="0px" y="0px" viewBox="0 0 1000 1000" enable-background="new 0 0 1000 1000" xml:space="preserve">
<metadata> Svg Vector Icons : http://www.onlinewebfonts.com/icon </metadata>
<g><path d="M265.6,374.6c94.1,94.3,188.4,189,287.6,288.4c-73.6,70.8-144.2,149.1-225.5,214c-77.7,62.1-194.7,42.2-262.2-30.9C-3,772-10.8,654,57.1,578.8C121.9,506.7,195.6,442.5,265.6,374.6z"/><path d="M641.5,829.2c-58.3-77-38.1-186.5,43.9-255.8c70.5-59.5,187.3-51.6,253.3,20.3C840.2,671.8,741.9,749.7,641.5,829.2z"/><path d="M583.2,625.5c-95.5-95.7-190.7-190.9-280.7-281c67.3-71.1,131.7-150.1,207.4-216.1c78.7-68.6,199.8-51.7,271.3,25.3c69.6,75,75.3,194.6,6.1,270.2C722.6,494.6,651,559,583.2,625.5z M587.3,579.2c50.5-50.5,104.5-104.5,158.3-158.7c9.1-9.2,18.2-18.7,25.6-29.2c49.4-69.7,39.3-165-23.3-223.7c-62.6-58.7-160.3-66-224-8.6c-63.4,57.2-120,121.9-178.7,182.2C424,418.6,504.2,497.5,587.3,579.2z"/><path d="M660.4,859.7c100.7-79.7,198.9-157.5,296.9-235c55.4,58.9,37,174.2-29.5,235.5C850.1,931.7,738.6,934.2,660.4,859.7z"/></g>
</svg>